<svg width="192" height="54" viewBox="0 0 192 54" fill="none" xmlns="http://www.w3.org/2000/svg">
    <path d="M6.63606 0V47.5966H23.6457V53.3936H0V0H6.63606Z" fill="white"/>
    <path d="M68.2705 40.4266C68.2705 44.7489 67.0755 48.0034 64.6855 50.19C62.3464 52.3257 58.9648 53.3936 54.5407 53.3936H51.4897C47.0656 53.3936 43.6586 52.3257 41.2686 50.19C38.9294 48.0034 37.7599 44.7489 37.7599 40.4266V12.967C37.7599 8.64468 38.9294 5.41564 41.2686 3.2799C43.6586 1.0933 47.0656 0 51.4897 0H54.5407C58.9648 0 62.3464 1.0933 64.6855 3.2799C67.0755 5.41564 68.2705 8.64468 68.2705 12.967V40.4266ZM61.6344 11.5178C61.6344 9.94138 61.0496 8.59383 59.8801 7.4751C58.7105 6.35638 57.185 5.79702 55.3035 5.79702H50.7269C48.8454 5.79702 47.3199 6.35638 46.1503 7.4751C44.9807 8.59383 44.3959 9.94138 44.3959 11.5178V41.8758C44.3959 43.4522 44.9807 44.7998 46.1503 45.9185C47.3199 47.0372 48.8454 47.5966 50.7269 47.5966H55.3035C57.185 47.5966 58.7105 47.0372 59.8801 45.9185C61.0496 44.7998 61.6344 43.4522 61.6344 41.8758V11.5178Z" fill="white"/>
    <path d="M94.5126 53.3936C90.0886 53.3936 86.6816 52.3257 84.2916 50.19C81.9524 48.0034 80.7828 44.7489 80.7828 40.4266V12.967C80.7828 8.64468 81.9524 5.41564 84.2916 3.2799C86.6816 1.0933 90.0886 0 94.5126 0H105.268V5.79702H93.7498C91.8684 5.79702 90.3428 6.35638 89.1732 7.4751C88.0037 8.59383 87.4189 9.94138 87.4189 11.5178V41.8758C87.4189 43.4522 88.0037 44.7998 89.1732 45.9185C90.3428 47.0372 91.8684 47.5966 93.7498 47.5966H101.225V31.0446H94.5889V25.3238H107.556V53.3936H94.5126Z" fill="white"/>
    <path d="M132.044 47.8254V5.56819H125.179V0H145.545V5.56819H138.68V47.8254H145.545V53.3936H125.179V47.8254H132.044Z" fill="white"/>
    <path d="M173.236 53.3936V5.79702H161.108V0H192V5.79702H179.872V53.3936H173.236Z" fill="white"/>
    <path d="M131.886 47.8254V5.56819H125.021V0H145.387V5.56819H138.522V47.8254H145.387V53.3936H125.021V47.8254H131.886Z" fill="url(#paint0_linear)"/>
    <path d="M173.079 53.3936V5.79702H160.951V0H191.843V5.79702H179.715V53.3936H173.079Z" fill="url(#paint1_linear)"/>
    <defs>
        <linearGradient id="paint0_linear" x1="155.964" y1="-13.8781" x2="155.964" y2="71.933" gradientUnits="userSpaceOnUse">
            <stop stop-color="#7800FF"/>
            <stop offset="1" stop-color="#8364CE"/>
        </linearGradient>
        <linearGradient id="paint1_linear" x1="155.964" y1="-13.8781" x2="155.964" y2="71.933" gradientUnits="userSpaceOnUse">
            <stop stop-color="#7800FF"/>
            <stop offset="1" stop-color="#8364CE"/>
        </linearGradient>
    </defs>
</svg>
